<svg width="194" height="64" viewBox="0 0 194 64" fill="none" xmlns="http://www.w3.org/2000/svg">
<path d="M2.31476 61.1814C2.31476 49.6846 8.88804 40.2439 10.8238 29.7994C11.9844 23.5376 14.9232 17.2734 17.3941 11.7838C20.3936 5.11993 16.8764 2.76903 20.7331 9.53187C23.2089 13.8733 25.6613 22.9557 26.5495 28.3465C27.2185 32.4073 29.4576 36.7777 29.4576 40.9139C29.4576 48.0207 34.3046 53.7491 34.3046 61.1814" stroke="black" stroke-width="3" stroke-linecap="round"/>
<path d="M9.10046 40.26C15.7628 39.2615 22.544 38.9525 29.4576 38.9525" stroke="black" stroke-width="3" stroke-linecap="round"/>
<path d="M40.1208 2.34015V61.1814" stroke="black" stroke-width="3" stroke-linecap="round"/>
<path d="M41.0903 33.7222C49.0764 33.7222 53.6923 36.5658 53.6923 48.1056C53.6923 55.6044 47.9029 58.5662 43.029 58.5662" stroke="black" stroke-width="3" stroke-linecap="round"/>
<path d="M70.1719 33.7222C64.052 33.7222 61.4474 44.1221 61.4474 51.3745C61.4474 56.6145 62.4409 58.5662 66.7791 58.5662C68.3705 58.5662 69.2865 60.56 70.7105 61.1088C72.3981 61.7591 74.7061 61.1814 76.4729 61.1814C78.7443 61.1814 83.4018 59.867 83.7433 55.9511C83.9985 53.0261 86.2131 46.0588 84.4973 43.1658C80.2814 36.0574 74.3134 38.3182 69.2025 33.7222" stroke="black" stroke-width="3" stroke-linecap="round"/>
<path d="M90.5291 32.4146C90.5291 37.9832 89.137 47.2291 92.2524 51.0113C94.9884 54.3327 97.405 57.2586 101.192 57.2586C111.894 57.2586 111.856 43.6091 111.856 32.4146" stroke="black" stroke-width="3" stroke-linecap="round"/>
<path d="M121.549 2.34015C121.549 21.0872 122.519 77.3133 122.519 58.5662" stroke="black" stroke-width="3" stroke-linecap="round"/>
<path d="M111.856 23.2615C112.11 20.5176 125.072 21.9539 127.366 21.9539" stroke="black" stroke-width="3" stroke-linecap="round"/>
<path d="M136.09 54.6435C139.193 54.6435 142.173 55.1174 144.815 53.3359" stroke="black" stroke-width="3" stroke-linecap="round"/>
<path d="M153.539 53.3359H166.141" stroke="black" stroke-width="3" stroke-linecap="round"/>
<path d="M179.713 54.6434C184.192 54.6434 188.15 55.951 192.315 55.951" stroke="black" stroke-width="3" stroke-linecap="round"/>
</svg>
