<svg width="192" height="62" viewBox="0 0 192 62" fill="none" xmlns="http://www.w3.org/2000/svg">
<path d="M3.36628 48.4385C3.36628 41.0863 3.36628 33.734 3.36628 26.3818C3.36628 21.4784 -0.709295 9.8392 6.99889 9.8392C15.9928 9.8392 16.0804 15.5582 16.0804 23.1652C16.0804 27.2336 7.76965 32.815 4.27443 32.815" stroke="black" stroke-width="3" stroke-linecap="round"/>
<path d="M20.6212 26.3818C17.732 27.1127 18.8049 36.0322 18.8049 38.125C18.8049 40.2988 18.8049 46.6458 18.8049 46.3962C18.8049 39.0367 17.5857 31.896 26.9783 31.896" stroke="black" stroke-width="3" stroke-linecap="round"/>
<path d="M39.6924 28.2199C33.558 28.2199 31.1586 36.5895 33.5372 42.0053C35.9016 47.3891 42.588 46.6005 48.0676 46.6005C56.5665 46.6005 57.6988 38.5226 54.4247 31.896C51.4195 25.8135 42.6942 26.3818 36.968 26.3818" stroke="black" stroke-width="3" stroke-linecap="round"/>
<path d="M64.2126 27.3008C63.1047 36.2701 62.0113 45.8239 60.5295 54.8207C59.3665 61.8826 45.5057 60.2025 40.6006 58.5479" stroke="black" stroke-width="3" stroke-linecap="round"/>
<path d="M63.3045 15.3534C63.3045 22.2716 68.1341 19.813 70.7716 16.4767C72.7963 13.9155 64.8803 13.637 63.3045 14.4344" stroke="black" stroke-width="3" stroke-linecap="round"/>
<path d="M75.1105 36.4912C79.7044 36.4912 84.8617 34.2771 86.7147 30.0579C87.9457 27.2549 85.7978 25.4628 83.2839 25.4628C81.9217 25.4628 80.5594 25.4628 79.1972 25.4628C77.581 25.4628 77.6358 27.1083 76.0186 27.3008C70.5412 27.953 69.6616 36.1307 69.6616 40.1673C69.6616 45.9353 79.5841 44.7624 83.2839 44.7624" stroke="black" stroke-width="3" stroke-linecap="round"/>
<path d="M107.804 26.3818C105.061 26.3818 100.987 23.9773 98.7225 26.8413C96.8099 29.2607 94.5834 31.3879 92.5672 33.9383C91.2362 35.6221 92.3708 43.1229 94.6863 43.7923C96.8172 44.4085 104.294 44.0924 105.08 45.6815" stroke="black" stroke-width="3" stroke-linecap="round"/>
<path d="M118.702 12.5963C116.58 12.8647 117.794 33.94 117.794 37.4102C117.794 44.4877 114.847 51.7894 108.712 55.076C105.341 56.8823 103.326 58.5479 99.1766 58.5479C95.4156 58.5479 91.5805 58.7591 87.8247 58.5479C80.6579 58.145 74.0958 58.5479 66.9371 58.5479" stroke="black" stroke-width="3" stroke-linecap="round"/>
<path d="M98.7225 12.5963C109.745 12.5963 120.3 13.5153 131.416 13.5153" stroke="black" stroke-width="3" stroke-linecap="round"/>
<path d="M116.886 1.56793V13.5153" stroke="black" stroke-width="3" stroke-linecap="round"/>
<path d="M149.579 15.3534C149.374 13.6944 142.898 14.3456 141.406 14.4344C139.648 14.539 136.587 18.0548 135.957 19.4891C132.567 27.2077 143.964 26.0796 146.401 30.5175C148.867 35.0104 150.483 42.4922 143.222 42.9244C138.544 43.2029 130.128 42.6569 125.967 44.7624" stroke="black" stroke-width="3" stroke-linecap="round"/>
<path d="M176.824 9.8392C176.824 23.4545 176.824 37.0698 176.824 50.6851C176.824 54.0302 175.073 59.7038 179.347 56.7098C182.682 54.3727 188.219 49.6866 189.538 45.6814" stroke="black" stroke-width="3" stroke-linecap="round"/>
<path d="M176.824 57.6289C172.082 57.6289 172.374 47.5195 166.834 47.5195" stroke="black" stroke-width="3" stroke-linecap="round"/>
</svg>
